<svg xmlns:dc="http://purl.org/dc/elements/1.1/" xmlns:cc="http://creativecommons.org/ns#" xmlns:rdf="http://www.w3.org/1999/02/22-rdf-syntax-ns#" xmlns:svg="http://www.w3.org/2000/svg" xmlns="http://www.w3.org/2000/svg" xmlns:sodipodi="http://sodipodi.sourceforge.net/DTD/sodipodi-0.dtd" xmlns:inkscape="http://www.inkscape.org/namespaces/inkscape" version="1.1" x="0px" y="0px" viewBox="0 0 100 100"><g transform="translate(0,-952.36218)"><path style="text-indent:0;text-transform:none;direction:ltr;block-progression:tb;baseline-shift:baseline;color:#000000;enable-background:accumulate;" d="m 15.000203,969.36222 0,48.06248 c 1.6e-4,1.0472 0.95284,1.9998 2,2 10.574249,-0.054 18.391409,2.2065 28.531249,9.9375 -11.82292,0 -23.64583,0 -35.468749,0 l -0.0625,-51.99998 c 0.0245,-1.13456 -1.0907603,-2.15553 -2.2187503,-2.03125 -0.98276,0.10798 -1.80253,1.04281 -1.78125,2.03125 l 0.0625,53.99998 c 9e-5,1.0472 0.95283,1.9999 2,2 l 35.4374993,0 c 0.95453,2.325 3.44634,4 6.46875,4 3.06687,0 5.6159,-1.6794 6.5625,-4 l 35.46875,0 c 1.04717,-10e-5 1.99991,-0.9528 2,-2 l -0.0625,-53.99998 c 0.0135,-1.05572 -0.94419,-2.02574 -2,-2.02574 -1.05581,0 -2.0135,0.97002 -2,2.02574 l 0.0625,51.99998 c -11.83333,0 -23.66667,0 -35.5,0 10.13019,-7.7188 17.93255,-9.9913 28.5,-9.9375 1.04716,-2e-4 1.99984,-0.9528 2,-2 l 0,-48.06248 c -1.6e-4,-1.04716 -0.95284,-1.99984 -2,-2 -15.98253,0 -23.72079,6.88042 -33,12.625 -9.27921,-5.74458 -17.01747,-12.625 -32.999999,-12.625 -1.125,-0.0128 -1.97538,1.0991 -2,2 z m 4,2.09375 c 13.443959,0.54903 19.790869,6.33048 28.999999,12 l 0,42.84373 c -10.06279,-7.6112 -18.73603,-10.4409 -28.999999,-10.7188 z m 61.999999,0 0,44.12493 c -10.26403,0.2779 -18.93722,3.1076 -29,10.7188 l 0,-42.84373 c 9.20913,-5.66952 15.55604,-11.45097 29,-12 z m -68.999999,3.90625 0,45.99998 2,0 0,-45.99998 z m 73.999999,0 0,45.99998 2,0 0,-45.99998 z m -64,4.53125 0,2 c 7.66667,0 15.49422,3.87534 22.40625,8.8125 l 1.1875,-1.625 c -7.08797,-5.06284 -15.26042,-9.1875 -23.59375,-9.1875 z m 56,0 c -8.33333,0 -16.50578,4.12466 -23.59375,9.1875 l 1.1875,1.625 c 6.91203,-4.93716 14.73958,-8.8125 22.40625,-8.8125 z m -56,8 0,2 c 7.66667,0 15.49422,3.87534 22.40625,8.8125 l 1.1875,-1.625 c -7.08797,-5.06284 -15.26042,-9.1875 -23.59375,-9.1875 z m 56,0 c -8.33333,0 -16.50578,4.12466 -23.59375,9.1875 l 1.1875,1.625 c 6.91203,-4.93716 14.73958,-8.8125 22.40625,-8.8125 z m -56,8 0,2 c 7.66667,0 15.49422,3.87533 22.40625,8.81253 l 1.1875,-1.625 c -7.08797,-5.0629 -15.26042,-9.18753 -23.59375,-9.18753 z m 56,0 c -8.33333,0 -16.50578,4.12463 -23.59375,9.18753 l 1.1875,1.625 c 6.91203,-4.9372 14.73958,-8.81253 22.40625,-8.81253 z m -56,8.00003 0,2 c 7.66667,0 15.49422,3.8753 22.40625,8.8124 l 1.1875,-1.625 c -7.08797,-5.0628 -15.26042,-9.1874 -23.59375,-9.1874 z m 56,0 c -8.33333,0 -16.50578,4.1246 -23.59375,9.1874 l 1.1875,1.625 c 6.91203,-4.9371 14.73958,-8.8124 22.40625,-8.8124 z" fill="#000000" fill-opacity="1" stroke="none" marker="none" visibility="visible" display="inline" overflow="visible"></path></g></svg>